<svg xmlns="http://www.w3.org/2000/svg" xmlns:xlink="http://www.w3.org/1999/xlink" width="1000" zoomAndPan="magnify" viewBox="0 0 750 374.999991" height="500" preserveAspectRatio="xMidYMid meet" version="1.2"><defs><clipPath id="085400c080"><path d="M 41.226562 91 L 102.316406 91 L 102.316406 142.710938 L 41.226562 142.710938 Z M 41.226562 91 "/></clipPath><clipPath id="c5756b0f67"><path d="M 102.226562 120.035156 L 95.71875 91.132812 L 41.796875 91.132812 L 56.078125 142.378906 C 69.796875 140.867188 83.949219 136.988281 94.804688 127.601562 Z M 102.226562 120.035156 "/></clipPath><clipPath id="e4cac5aca1"><path d="M 150 91 L 224 91 L 224 185.921875 L 150 185.921875 Z M 150 91 "/></clipPath><clipPath id="ad12bb525e"><path d="M 170.019531 91.132812 L 154.269531 161.128906 L 151.125 175.097656 L 150.480469 177.996094 L 154.167969 185.5625 L 154.992188 185.878906 L 156.71875 185.003906 C 169.355469 172.363281 185.898438 165.109375 203.648438 164.359375 L 206.925781 152.523438 L 210.484375 139.652344 L 223.921875 91.132812 Z M 170.019531 91.132812 "/></clipPath><clipPath id="25b71c4661"><path d="M 59.105469 134.515625 L 200 134.515625 L 200 284 L 59.105469 284 Z M 59.105469 134.515625 "/></clipPath><clipPath id="ed9ee2a0e6"><path d="M 163.246094 196.683594 C 160.941406 198.988281 157.863281 200.269531 154.648438 200.269531 C 154.132812 200.269531 153.617188 200.226562 153.101562 200.167969 C 150.46875 199.839844 148.082031 198.695312 146.214844 196.917969 L 140.410156 222.691406 C 139.664062 226.230469 138.917969 229.878906 138.167969 233.589844 C 137.429688 237.320312 136.777344 240.949219 136.214844 244.472656 L 129.519531 244.472656 C 128.960938 240.949219 128.300781 237.320312 127.566406 233.589844 C 126.820312 229.878906 126.074219 226.230469 125.332031 222.691406 L 110.101562 155.035156 L 106.738281 140.074219 L 105.59375 134.996094 L 103.816406 136.800781 C 103.695312 136.921875 103.582031 137.023438 103.445312 137.136719 C 103.238281 137.316406 103.03125 137.488281 102.828125 137.667969 C 90.179688 148.449219 74.59375 153.046875 59.558594 154.929688 L 62.671875 166.097656 L 66.136719 178.554688 L 91.511719 269.613281 C 92.449219 273.902344 94.539062 277.355469 97.804688 279.953125 C 101.066406 282.566406 105.019531 283.863281 109.679688 283.863281 L 156.324219 283.863281 C 160.792969 283.863281 164.65625 282.574219 167.914062 279.953125 C 171.171875 277.355469 173.363281 273.902344 174.480469 269.613281 L 199.988281 177.546875 C 187.082031 179.019531 175.144531 184.777344 165.832031 194.089844 Z M 163.246094 196.683594 "/></clipPath><clipPath id="213aa4f8fa"><path d="M 59.105469 121.105469 L 207.359375 121.105469 L 207.359375 188 L 59.105469 188 Z M 59.105469 121.105469 "/></clipPath><clipPath id="6f53ead174"><path d="M 207.15625 151.679688 L 203.46875 164.980469 C 191.117188 166.699219 179.699219 172.355469 170.707031 181.347656 L 168.136719 183.917969 C 165.832031 186.238281 162.753906 187.503906 159.539062 187.503906 C 159.023438 187.503906 158.507812 187.460938 158 187.402344 C 154.535156 186.980469 151.492188 185.121094 149.507812 182.285156 C 149.34375 182.054688 149.179688 181.804688 149.015625 181.554688 C 148.929688 181.390625 148.84375 181.226562 148.75 181.074219 L 126.527344 135.476562 C 126.03125 134.933594 125.324219 134.417969 124.429688 134.339844 C 123.476562 134.28125 122.382812 134.769531 121.386719 135.734375 L 108.707031 148.679688 C 108.691406 148.699219 108.691406 148.699219 108.671875 148.707031 C 108.570312 148.808594 108.449219 148.914062 108.335938 149.015625 L 107.71875 149.539062 C 94.632812 160.691406 78.429688 165.238281 62.929688 166.992188 L 59.429688 154.414062 C 73.640625 153.023438 88.4375 149.238281 99.699219 139.492188 L 105.3125 133.757812 L 112.25 126.671875 L 112.335938 126.585938 C 116.023438 122.984375 120.621094 121.179688 125.324219 121.507812 C 129.925781 121.839844 134.09375 124.152344 137.078125 128.039062 C 137.34375 128.367188 137.558594 128.746094 137.753906 129.132812 L 153.976562 162.390625 L 159.058594 172.8125 L 159.703125 174.144531 L 161.613281 172.234375 C 173.90625 159.941406 189.9375 152.738281 207.15625 151.679688 "/></clipPath><clipPath id="8845f0ade5"><path d="M 287.015625 140 L 376.90625 140 L 376.90625 235 L 287.015625 235 Z M 287.015625 140 "/></clipPath><clipPath id="1daba5b097"><path d="M 376.742188 140.148438 L 352.445312 227.851562 C 351.894531 229.957031 350.820312 231.652344 349.222656 232.933594 C 347.625 234.214844 345.722656 234.851562 343.53125 234.851562 L 320.601562 234.851562 C 318.316406 234.851562 316.375 234.214844 314.773438 232.933594 C 313.175781 231.652344 312.144531 229.957031 311.6875 227.851562 L 287.25 140.148438 L 313.742188 140.148438 L 328.289062 204.796875 C 328.648438 206.53125 329.019531 208.320312 329.390625 210.152344 C 329.757812 211.984375 330.078125 213.769531 330.351562 215.507812 L 333.644531 215.507812 C 333.917969 213.769531 334.238281 211.984375 334.609375 210.152344 C 334.976562 208.320312 335.339844 206.542969 335.707031 204.796875 L 350.246094 140.148438 Z M 376.742188 140.148438 "/></clipPath><clipPath id="d920170f96"><path d="M 384.226562 139.503906 L 453.375 139.503906 L 453.375 235.496094 L 384.226562 235.496094 Z M 384.226562 139.503906 "/></clipPath><clipPath id="14e1bead53"><path d="M 387.03125 177.347656 L 447.011719 177.347656 L 447.011719 194.773438 L 387.03125 194.773438 Z M 405.832031 139.734375 L 422.097656 139.734375 C 427.632812 139.734375 433.074219 139.855469 438.429688 140.078125 C 443.785156 140.304688 448.703125 140.699219 453.183594 141.25 L 451.945312 159.636719 L 416.542969 159.636719 C 414.53125 159.636719 412.976562 160.160156 411.875 161.21875 C 410.773438 162.277344 410.234375 163.710938 410.234375 165.542969 L 410.234375 209.464844 C 410.234375 211.296875 410.785156 212.738281 411.875 213.789062 C 412.96875 214.835938 414.53125 215.371094 416.542969 215.371094 L 451.953125 215.371094 L 453.191406 233.757812 C 448.703125 234.222656 443.785156 234.558594 438.4375 234.789062 C 433.09375 235.023438 427.640625 235.152344 422.105469 235.203125 C 416.570312 235.253906 411.144531 235.273438 405.839844 235.273438 C 399.53125 235.273438 394.398438 233.398438 390.46875 229.640625 C 386.539062 225.882812 384.5625 220.992188 384.5625 214.957031 L 384.5625 160.050781 C 384.5625 153.921875 386.53125 149.003906 390.46875 145.296875 C 394.40625 141.59375 399.523438 139.734375 405.832031 139.734375 "/></clipPath><clipPath id="aef0f9e0e6"><path d="M 462 140 L 535.425781 140 L 535.425781 235 L 462 235 Z M 462 140 "/></clipPath><clipPath id="1d830602fe"><path d="M 533.890625 158.671875 L 463.484375 158.671875 L 463.484375 140.148438 L 533.890625 140.148438 Z M 535.128906 234.847656 L 462.246094 234.847656 L 462.246094 216.324219 L 535.128906 216.324219 Z M 505.480469 158.542969 L 533.890625 158.683594 L 490.660156 216.460938 L 462.246094 216.324219 Z M 505.480469 158.542969 "/></clipPath><clipPath id="d571c22904"><path d="M 541.300781 140.148438 L 621.871094 140.148438 L 621.871094 159.773438 L 541.300781 159.773438 Z M 568.75 159.773438 L 594.558594 159.773438 L 594.558594 234.847656 L 568.75 234.847656 Z M 568.75 159.773438 "/></clipPath><clipPath id="b6d6b43cb4"><path d="M 615 140 L 708.535156 140 L 708.535156 235 L 615 235 Z M 615 140 "/></clipPath><clipPath id="bb077b5ccb"><path d="M 686.519531 212.34375 L 636.691406 212.34375 L 636.691406 193.816406 L 686.519531 193.816406 Z M 673.476562 140.148438 C 675.582031 140.148438 677.433594 140.742188 679.03125 141.9375 C 680.628906 143.128906 681.703125 144.773438 682.253906 146.878906 L 708.199219 234.847656 L 681.851562 234.847656 L 665.242188 169.515625 C 664.871094 167.957031 664.554688 166.289062 664.277344 164.503906 C 664.003906 162.714844 663.730469 161.046875 663.453125 159.488281 L 659.75 159.488281 C 659.566406 161.046875 659.308594 162.714844 658.992188 164.503906 C 658.675781 166.289062 658.328125 167.957031 657.960938 169.515625 L 641.351562 234.847656 L 615.003906 234.847656 L 640.949219 146.871094 C 641.496094 144.765625 642.570312 143.121094 644.171875 141.925781 C 645.769531 140.730469 647.628906 140.148438 649.734375 140.148438 Z M 673.476562 140.148438 "/></clipPath></defs><g id="ef8aee35a3"><g clip-rule="nonzero" clip-path="url(#085400c080)"><g clip-rule="nonzero" clip-path="url(#c5756b0f67)"><path style=" stroke:none;fill-rule:nonzero;fill:#000000;fill-opacity:1;" d="M 37.5 86.835938 L 228.21875 86.835938 L 228.21875 287.984375 L 37.5 287.984375 Z M 37.5 86.835938 "/></g></g><g clip-rule="nonzero" clip-path="url(#e4cac5aca1)"><g clip-rule="nonzero" clip-path="url(#ad12bb525e)"><path style=" stroke:none;fill-rule:nonzero;fill:#000000;fill-opacity:1;" d="M 37.5 86.835938 L 228.21875 86.835938 L 228.21875 287.984375 L 37.5 287.984375 Z M 37.5 86.835938 "/></g></g><g clip-rule="nonzero" clip-path="url(#25b71c4661)"><g clip-rule="nonzero" clip-path="url(#ed9ee2a0e6)"><path style=" stroke:none;fill-rule:nonzero;fill:#000000;fill-opacity:1;" d="M 37.5 86.835938 L 228.21875 86.835938 L 228.21875 287.984375 L 37.5 287.984375 Z M 37.5 86.835938 "/></g></g><g clip-rule="nonzero" clip-path="url(#213aa4f8fa)"><g clip-rule="nonzero" clip-path="url(#6f53ead174)"><path style=" stroke:none;fill-rule:nonzero;fill:#f88379;fill-opacity:1;" d="M 37.5 86.835938 L 228.21875 86.835938 L 228.21875 287.984375 L 37.5 287.984375 Z M 37.5 86.835938 "/></g></g><g clip-rule="nonzero" clip-path="url(#8845f0ade5)"><g clip-rule="nonzero" clip-path="url(#1daba5b097)"><path style=" stroke:none;fill-rule:nonzero;fill:#000000;fill-opacity:1;" d="M 282.949219 135.4375 L 457.441406 135.4375 L 457.441406 239.5625 L 282.949219 239.5625 Z M 282.949219 135.4375 "/></g></g><g clip-rule="nonzero" clip-path="url(#d920170f96)"><g clip-rule="nonzero" clip-path="url(#14e1bead53)"><path style=" stroke:none;fill-rule:nonzero;fill:#000000;fill-opacity:1;" d="M 282.949219 135.4375 L 457.441406 135.4375 L 457.441406 239.5625 L 282.949219 239.5625 Z M 282.949219 135.4375 "/></g></g><g clip-rule="nonzero" clip-path="url(#aef0f9e0e6)"><g clip-rule="nonzero" clip-path="url(#1d830602fe)"><path style=" stroke:none;fill-rule:nonzero;fill:#000000;fill-opacity:1;" d="M 457.949219 135.847656 L 712.570312 135.847656 L 712.570312 239.152344 L 457.949219 239.152344 Z M 457.949219 135.847656 "/></g></g><g clip-rule="nonzero" clip-path="url(#d571c22904)"><path style=" stroke:none;fill-rule:nonzero;fill:#000000;fill-opacity:1;" d="M 457.949219 135.847656 L 712.570312 135.847656 L 712.570312 239.152344 L 457.949219 239.152344 Z M 457.949219 135.847656 "/></g><g clip-rule="nonzero" clip-path="url(#b6d6b43cb4)"><g clip-rule="nonzero" clip-path="url(#bb077b5ccb)"><path style=" stroke:none;fill-rule:nonzero;fill:#000000;fill-opacity:1;" d="M 457.949219 135.847656 L 712.570312 135.847656 L 712.570312 239.152344 L 457.949219 239.152344 Z M 457.949219 135.847656 "/></g></g></g></svg>